<mxfile host="www.draw.io" modified="2019-12-04T05:50:35.043Z" agent="Mozilla/5.0 (Windows NT 10.0; Win64; x64) AppleWebKit/537.36 (KHTML, like Gecko) Chrome/74.0.3729.108 Safari/537.36" etag="zEZOMmdH5X5rc915blVK" version="12.3.5" type="github" pages="1">
  <diagram id="xrXdwEM-tlKpLXVadPnm" name="第 1 页">
    <mxGraphModel dx="1550" dy="787" grid="1" gridSize="10" guides="1" tooltips="1" connect="1" arrows="1" fold="1" page="1" pageScale="1" pageWidth="1169" pageHeight="1654" math="0" shadow="0">
      <root>
        <mxCell id="0"/>
        <mxCell id="1" parent="0"/>
        <mxCell id="_7fp2GfrCFczivVZK0u0-68" value="" style="rounded=0;whiteSpace=wrap;html=1;fontColor=#000000;dashed=1;strokeColor=#FF3333;" vertex="1" parent="1">
          <mxGeometry x="100" y="1600" width="670" height="250" as="geometry"/>
        </mxCell>
        <mxCell id="gF-29q6ZPJOaGtryicZK-3" value="预支付表" style="swimlane;fontStyle=0;childLayout=stackLayout;horizontal=1;startSize=22;fillColor=none;horizontalStack=0;resizeParent=1;resizeParentMax=0;resizeLast=0;collapsible=1;marginBottom=0;swimlaneFillColor=#ffffff;align=center;fontSize=14;" parent="1" vertex="1">
          <mxGeometry x="120" y="240" width="160" height="120" as="geometry"/>
        </mxCell>
        <mxCell id="gF-29q6ZPJOaGtryicZK-5" value="order_no订单编号" style="text;strokeColor=none;fillColor=none;spacingLeft=4;spacingRight=4;overflow=hidden;rotatable=0;points=[[0,0.5],[1,0.5]];portConstraint=eastwest;fontSize=12;" parent="gF-29q6ZPJOaGtryicZK-3" vertex="1">
          <mxGeometry y="22" width="160" height="26" as="geometry"/>
        </mxCell>
        <mxCell id="gF-29q6ZPJOaGtryicZK-4" value="goods_desc商品描述" style="text;strokeColor=none;fillColor=none;spacingLeft=4;spacingRight=4;overflow=hidden;rotatable=0;points=[[0,0.5],[1,0.5]];portConstraint=eastwest;fontSize=12;" parent="gF-29q6ZPJOaGtryicZK-3" vertex="1">
          <mxGeometry y="48" width="160" height="26" as="geometry"/>
        </mxCell>
        <mxCell id="gF-29q6ZPJOaGtryicZK-6" value="appid appId" style="text;strokeColor=none;fillColor=none;spacingLeft=4;spacingRight=4;overflow=hidden;rotatable=0;points=[[0,0.5],[1,0.5]];portConstraint=eastwest;fontSize=12;" parent="gF-29q6ZPJOaGtryicZK-3" vertex="1">
          <mxGeometry y="74" width="160" height="46" as="geometry"/>
        </mxCell>
        <mxCell id="gF-29q6ZPJOaGtryicZK-7" value="支付表" style="swimlane;fontStyle=0;childLayout=stackLayout;horizontal=1;startSize=22;fillColor=none;horizontalStack=0;resizeParent=1;resizeParentMax=0;resizeLast=0;collapsible=1;marginBottom=0;swimlaneFillColor=#ffffff;align=center;fontSize=14;" parent="1" vertex="1">
          <mxGeometry x="400" y="240" width="200" height="160" as="geometry"/>
        </mxCell>
        <mxCell id="gF-29q6ZPJOaGtryicZK-8" value="order_no 订单编号" style="text;strokeColor=none;fillColor=none;spacingLeft=4;spacingRight=4;overflow=hidden;rotatable=0;points=[[0,0.5],[1,0.5]];portConstraint=eastwest;fontSize=12;" parent="gF-29q6ZPJOaGtryicZK-7" vertex="1">
          <mxGeometry y="22" width="200" height="26" as="geometry"/>
        </mxCell>
        <mxCell id="gF-29q6ZPJOaGtryicZK-9" value="pay_fee 支付金额" style="text;strokeColor=none;fillColor=none;spacingLeft=4;spacingRight=4;overflow=hidden;rotatable=0;points=[[0,0.5],[1,0.5]];portConstraint=eastwest;fontSize=12;" parent="gF-29q6ZPJOaGtryicZK-7" vertex="1">
          <mxGeometry y="48" width="200" height="26" as="geometry"/>
        </mxCell>
        <mxCell id="gF-29q6ZPJOaGtryicZK-10" value="pay_result_code 支付结果&#xa;&#xa;transaction_id 微信支付订单号&#xa;&#xa;refund_id 微信退款单号" style="text;strokeColor=none;fillColor=none;spacingLeft=4;spacingRight=4;overflow=hidden;rotatable=0;points=[[0,0.5],[1,0.5]];portConstraint=eastwest;fontSize=12;" parent="gF-29q6ZPJOaGtryicZK-7" vertex="1">
          <mxGeometry y="74" width="200" height="86" as="geometry"/>
        </mxCell>
        <mxCell id="gF-29q6ZPJOaGtryicZK-11" value="退款表" style="swimlane;fontStyle=0;childLayout=stackLayout;horizontal=1;startSize=22;fillColor=none;horizontalStack=0;resizeParent=1;resizeParentMax=0;resizeLast=0;collapsible=1;marginBottom=0;swimlaneFillColor=#ffffff;align=center;fontSize=14;" parent="1" vertex="1">
          <mxGeometry x="720" y="240" width="160" height="124" as="geometry"/>
        </mxCell>
        <mxCell id="gF-29q6ZPJOaGtryicZK-12" value="order_no 订单编号" style="text;strokeColor=none;fillColor=none;spacingLeft=4;spacingRight=4;overflow=hidden;rotatable=0;points=[[0,0.5],[1,0.5]];portConstraint=eastwest;fontSize=12;" parent="gF-29q6ZPJOaGtryicZK-11" vertex="1">
          <mxGeometry y="22" width="160" height="26" as="geometry"/>
        </mxCell>
        <mxCell id="gF-29q6ZPJOaGtryicZK-13" value="refund_desc 退款原因" style="text;strokeColor=none;fillColor=none;spacingLeft=4;spacingRight=4;overflow=hidden;rotatable=0;points=[[0,0.5],[1,0.5]];portConstraint=eastwest;fontSize=12;" parent="gF-29q6ZPJOaGtryicZK-11" vertex="1">
          <mxGeometry y="48" width="160" height="26" as="geometry"/>
        </mxCell>
        <mxCell id="gF-29q6ZPJOaGtryicZK-14" value="refund_fee 退款总金额&#xa;&#xa;refund_id 退款单号" style="text;strokeColor=none;fillColor=none;spacingLeft=4;spacingRight=4;overflow=hidden;rotatable=0;points=[[0,0.5],[1,0.5]];portConstraint=eastwest;fontSize=12;" parent="gF-29q6ZPJOaGtryicZK-11" vertex="1">
          <mxGeometry y="74" width="160" height="50" as="geometry"/>
        </mxCell>
        <mxCell id="gF-29q6ZPJOaGtryicZK-17" value="代金券表" style="swimlane;fontStyle=0;childLayout=stackLayout;horizontal=1;startSize=22;fillColor=none;horizontalStack=0;resizeParent=1;resizeParentMax=0;resizeLast=0;collapsible=1;marginBottom=0;swimlaneFillColor=#ffffff;align=center;fontSize=14;" parent="1" vertex="1">
          <mxGeometry x="420" y="522" width="160" height="120" as="geometry"/>
        </mxCell>
        <mxCell id="gF-29q6ZPJOaGtryicZK-18" value="transaction_id 微信支付订单号" style="text;strokeColor=none;fillColor=none;spacingLeft=4;spacingRight=4;overflow=hidden;rotatable=0;points=[[0,0.5],[1,0.5]];portConstraint=eastwest;fontSize=12;" parent="gF-29q6ZPJOaGtryicZK-17" vertex="1">
          <mxGeometry y="22" width="160" height="26" as="geometry"/>
        </mxCell>
        <mxCell id="gF-29q6ZPJOaGtryicZK-19" value="coupon_fee 代金券金额" style="text;strokeColor=none;fillColor=none;spacingLeft=4;spacingRight=4;overflow=hidden;rotatable=0;points=[[0,0.5],[1,0.5]];portConstraint=eastwest;fontSize=12;" parent="gF-29q6ZPJOaGtryicZK-17" vertex="1">
          <mxGeometry y="48" width="160" height="26" as="geometry"/>
        </mxCell>
        <mxCell id="gF-29q6ZPJOaGtryicZK-20" value="coupon_type 代金券类型" style="text;strokeColor=none;fillColor=none;spacingLeft=4;spacingRight=4;overflow=hidden;rotatable=0;points=[[0,0.5],[1,0.5]];portConstraint=eastwest;fontSize=12;" parent="gF-29q6ZPJOaGtryicZK-17" vertex="1">
          <mxGeometry y="74" width="160" height="46" as="geometry"/>
        </mxCell>
        <mxCell id="gF-29q6ZPJOaGtryicZK-25" value="代金券退款表" style="swimlane;fontStyle=0;childLayout=stackLayout;horizontal=1;startSize=22;fillColor=none;horizontalStack=0;resizeParent=1;resizeParentMax=0;resizeLast=0;collapsible=1;marginBottom=0;swimlaneFillColor=#ffffff;align=center;fontSize=14;" parent="1" vertex="1">
          <mxGeometry x="720" y="522" width="160" height="120" as="geometry"/>
        </mxCell>
        <mxCell id="gF-29q6ZPJOaGtryicZK-26" value="refund_id 微信退款单号" style="text;strokeColor=none;fillColor=none;spacingLeft=4;spacingRight=4;overflow=hidden;rotatable=0;points=[[0,0.5],[1,0.5]];portConstraint=eastwest;fontSize=12;" parent="gF-29q6ZPJOaGtryicZK-25" vertex="1">
          <mxGeometry y="22" width="160" height="26" as="geometry"/>
        </mxCell>
        <mxCell id="gF-29q6ZPJOaGtryicZK-27" value="coupon_refund_fee 退款代金券金额" style="text;strokeColor=none;fillColor=none;spacingLeft=4;spacingRight=4;overflow=hidden;rotatable=0;points=[[0,0.5],[1,0.5]];portConstraint=eastwest;fontSize=12;" parent="gF-29q6ZPJOaGtryicZK-25" vertex="1">
          <mxGeometry y="48" width="160" height="26" as="geometry"/>
        </mxCell>
        <mxCell id="gF-29q6ZPJOaGtryicZK-28" value="coupon_refund_type 退款代金券类型 " style="text;strokeColor=none;fillColor=none;spacingLeft=4;spacingRight=4;overflow=hidden;rotatable=0;points=[[0,0.5],[1,0.5]];portConstraint=eastwest;fontSize=12;" parent="gF-29q6ZPJOaGtryicZK-25" vertex="1">
          <mxGeometry y="74" width="160" height="46" as="geometry"/>
        </mxCell>
        <mxCell id="gF-29q6ZPJOaGtryicZK-33" value="" style="endArrow=classic;html=1;entryX=1;entryY=0.5;entryDx=0;entryDy=0;exitX=0;exitY=0.5;exitDx=0;exitDy=0;" parent="1" source="gF-29q6ZPJOaGtryicZK-8" target="gF-29q6ZPJOaGtryicZK-5" edge="1">
          <mxGeometry width="50" height="50" relative="1" as="geometry">
            <mxPoint x="360" y="210" as="sourcePoint"/>
            <mxPoint x="410" y="160" as="targetPoint"/>
          </mxGeometry>
        </mxCell>
        <mxCell id="gF-29q6ZPJOaGtryicZK-42" value="" style="endArrow=classic;html=1;entryX=1;entryY=0.5;entryDx=0;entryDy=0;exitX=0;exitY=0.5;exitDx=0;exitDy=0;" parent="1" source="gF-29q6ZPJOaGtryicZK-12" target="gF-29q6ZPJOaGtryicZK-8" edge="1">
          <mxGeometry width="50" height="50" relative="1" as="geometry">
            <mxPoint x="710" y="550" as="sourcePoint"/>
            <mxPoint x="660" y="450" as="targetPoint"/>
          </mxGeometry>
        </mxCell>
        <mxCell id="gF-29q6ZPJOaGtryicZK-44" value="" style="endArrow=classic;html=1;entryX=0.458;entryY=1.009;entryDx=0;entryDy=0;entryPerimeter=0;" parent="1" edge="1">
          <mxGeometry width="50" height="50" relative="1" as="geometry">
            <mxPoint x="499" y="520" as="sourcePoint"/>
            <mxPoint x="500.5999999999999" y="400.7739999999999" as="targetPoint"/>
          </mxGeometry>
        </mxCell>
        <mxCell id="gF-29q6ZPJOaGtryicZK-45" value="" style="endArrow=classic;html=1;entryX=0.563;entryY=1.12;entryDx=0;entryDy=0;entryPerimeter=0;exitX=0.563;exitY=-0.017;exitDx=0;exitDy=0;exitPerimeter=0;" parent="1" edge="1">
          <mxGeometry width="50" height="50" relative="1" as="geometry">
            <mxPoint x="801.0799999999999" y="519.96" as="sourcePoint"/>
            <mxPoint x="801.0799999999999" y="370" as="targetPoint"/>
          </mxGeometry>
        </mxCell>
        <mxCell id="_7fp2GfrCFczivVZK0u0-1" value="对账表" style="swimlane;fontStyle=0;childLayout=stackLayout;horizontal=1;startSize=22;fillColor=none;horizontalStack=0;resizeParent=1;resizeParentMax=0;resizeLast=0;collapsible=1;marginBottom=0;swimlaneFillColor=#ffffff;align=center;fontSize=14;" vertex="1" parent="1">
          <mxGeometry x="120" y="522" width="160" height="120" as="geometry"/>
        </mxCell>
        <mxCell id="_7fp2GfrCFczivVZK0u0-2" value="order_no 订单编号" style="text;strokeColor=none;fillColor=none;spacingLeft=4;spacingRight=4;overflow=hidden;rotatable=0;points=[[0,0.5],[1,0.5]];portConstraint=eastwest;fontSize=12;" vertex="1" parent="_7fp2GfrCFczivVZK0u0-1">
          <mxGeometry y="22" width="160" height="28" as="geometry"/>
        </mxCell>
        <mxCell id="_7fp2GfrCFczivVZK0u0-3" value="order_fee 订单总金额" style="text;strokeColor=none;fillColor=none;spacingLeft=4;spacingRight=4;overflow=hidden;rotatable=0;points=[[0,0.5],[1,0.5]];portConstraint=eastwest;fontSize=12;" vertex="1" parent="_7fp2GfrCFczivVZK0u0-1">
          <mxGeometry y="50" width="160" height="26" as="geometry"/>
        </mxCell>
        <mxCell id="_7fp2GfrCFczivVZK0u0-4" value="coupon_fee 优惠券总额" style="text;strokeColor=none;fillColor=none;spacingLeft=4;spacingRight=4;overflow=hidden;rotatable=0;points=[[0,0.5],[1,0.5]];portConstraint=eastwest;fontSize=12;" vertex="1" parent="_7fp2GfrCFczivVZK0u0-1">
          <mxGeometry y="76" width="160" height="44" as="geometry"/>
        </mxCell>
        <mxCell id="_7fp2GfrCFczivVZK0u0-5" value="" style="endArrow=classic;html=1;entryX=-0.018;entryY=1.009;entryDx=0;entryDy=0;entryPerimeter=0;" edge="1" parent="1" target="gF-29q6ZPJOaGtryicZK-10">
          <mxGeometry width="50" height="50" relative="1" as="geometry">
            <mxPoint x="210" y="520" as="sourcePoint"/>
            <mxPoint x="260" y="470" as="targetPoint"/>
          </mxGeometry>
        </mxCell>
        <mxCell id="_7fp2GfrCFczivVZK0u0-6" value="订单表 order_info" style="swimlane;fontStyle=0;childLayout=stackLayout;horizontal=1;startSize=22;fillColor=none;horizontalStack=0;resizeParent=1;resizeParentMax=0;resizeLast=0;collapsible=1;marginBottom=0;swimlaneFillColor=#ffffff;align=center;fontSize=14;" vertex="1" parent="1">
          <mxGeometry x="120" y="760" width="160" height="116" as="geometry"/>
        </mxCell>
        <mxCell id="_7fp2GfrCFczivVZK0u0-7" value="order_number 订单编号" style="text;strokeColor=none;fillColor=none;spacingLeft=4;spacingRight=4;overflow=hidden;rotatable=0;points=[[0,0.5],[1,0.5]];portConstraint=eastwest;fontSize=12;" vertex="1" parent="_7fp2GfrCFczivVZK0u0-6">
          <mxGeometry y="22" width="160" height="28" as="geometry"/>
        </mxCell>
        <mxCell id="_7fp2GfrCFczivVZK0u0-8" value="amount 订单金额" style="text;strokeColor=none;fillColor=none;spacingLeft=4;spacingRight=4;overflow=hidden;rotatable=0;points=[[0,0.5],[1,0.5]];portConstraint=eastwest;fontSize=12;" vertex="1" parent="_7fp2GfrCFczivVZK0u0-6">
          <mxGeometry y="50" width="160" height="26" as="geometry"/>
        </mxCell>
        <mxCell id="_7fp2GfrCFczivVZK0u0-9" value="user_id 用户id" style="text;strokeColor=none;fillColor=none;spacingLeft=4;spacingRight=4;overflow=hidden;rotatable=0;points=[[0,0.5],[1,0.5]];portConstraint=eastwest;fontSize=12;" vertex="1" parent="_7fp2GfrCFczivVZK0u0-6">
          <mxGeometry y="76" width="160" height="40" as="geometry"/>
        </mxCell>
        <mxCell id="_7fp2GfrCFczivVZK0u0-10" value="支付表order_payment" style="swimlane;fontStyle=0;childLayout=stackLayout;horizontal=1;startSize=22;fillColor=none;horizontalStack=0;resizeParent=1;resizeParentMax=0;resizeLast=0;collapsible=1;marginBottom=0;swimlaneFillColor=#ffffff;align=center;fontSize=14;" vertex="1" parent="1">
          <mxGeometry x="400" y="760" width="160" height="120" as="geometry"/>
        </mxCell>
        <mxCell id="_7fp2GfrCFczivVZK0u0-11" value="order_id 订单id" style="text;strokeColor=none;fillColor=none;spacingLeft=4;spacingRight=4;overflow=hidden;rotatable=0;points=[[0,0.5],[1,0.5]];portConstraint=eastwest;fontSize=12;" vertex="1" parent="_7fp2GfrCFczivVZK0u0-10">
          <mxGeometry y="22" width="160" height="26" as="geometry"/>
        </mxCell>
        <mxCell id="_7fp2GfrCFczivVZK0u0-12" value="payment_id 第三方支付单号" style="text;strokeColor=none;fillColor=none;spacingLeft=4;spacingRight=4;overflow=hidden;rotatable=0;points=[[0,0.5],[1,0.5]];portConstraint=eastwest;fontSize=12;" vertex="1" parent="_7fp2GfrCFczivVZK0u0-10">
          <mxGeometry y="48" width="160" height="26" as="geometry"/>
        </mxCell>
        <mxCell id="_7fp2GfrCFczivVZK0u0-13" value="status 支付状态" style="text;strokeColor=none;fillColor=none;spacingLeft=4;spacingRight=4;overflow=hidden;rotatable=0;points=[[0,0.5],[1,0.5]];portConstraint=eastwest;fontSize=12;" vertex="1" parent="_7fp2GfrCFczivVZK0u0-10">
          <mxGeometry y="74" width="160" height="46" as="geometry"/>
        </mxCell>
        <mxCell id="_7fp2GfrCFczivVZK0u0-14" value="order_refund退款表" style="swimlane;fontStyle=0;childLayout=stackLayout;horizontal=1;startSize=22;fillColor=none;horizontalStack=0;resizeParent=1;resizeParentMax=0;resizeLast=0;collapsible=1;marginBottom=0;swimlaneFillColor=#ffffff;align=center;fontSize=14;" vertex="1" parent="1">
          <mxGeometry x="680" y="760" width="160" height="124" as="geometry"/>
        </mxCell>
        <mxCell id="_7fp2GfrCFczivVZK0u0-15" value="order_id 订单号" style="text;strokeColor=none;fillColor=none;spacingLeft=4;spacingRight=4;overflow=hidden;rotatable=0;points=[[0,0.5],[1,0.5]];portConstraint=eastwest;fontSize=12;" vertex="1" parent="_7fp2GfrCFczivVZK0u0-14">
          <mxGeometry y="22" width="160" height="26" as="geometry"/>
        </mxCell>
        <mxCell id="_7fp2GfrCFczivVZK0u0-16" value="payment_id 第三方支付单号" style="text;strokeColor=none;fillColor=none;spacingLeft=4;spacingRight=4;overflow=hidden;rotatable=0;points=[[0,0.5],[1,0.5]];portConstraint=eastwest;fontSize=12;" vertex="1" parent="_7fp2GfrCFczivVZK0u0-14">
          <mxGeometry y="48" width="160" height="26" as="geometry"/>
        </mxCell>
        <mxCell id="_7fp2GfrCFczivVZK0u0-17" value="reason 退款原因" style="text;strokeColor=none;fillColor=none;spacingLeft=4;spacingRight=4;overflow=hidden;rotatable=0;points=[[0,0.5],[1,0.5]];portConstraint=eastwest;fontSize=12;" vertex="1" parent="_7fp2GfrCFczivVZK0u0-14">
          <mxGeometry y="74" width="160" height="50" as="geometry"/>
        </mxCell>
        <mxCell id="_7fp2GfrCFczivVZK0u0-18" value="" style="endArrow=classic;html=1;entryX=1;entryY=0.5;entryDx=0;entryDy=0;exitX=0;exitY=0.5;exitDx=0;exitDy=0;" edge="1" parent="1" source="_7fp2GfrCFczivVZK0u0-16" target="_7fp2GfrCFczivVZK0u0-12">
          <mxGeometry width="50" height="50" relative="1" as="geometry">
            <mxPoint x="660" y="960" as="sourcePoint"/>
            <mxPoint x="710" y="910" as="targetPoint"/>
          </mxGeometry>
        </mxCell>
        <mxCell id="_7fp2GfrCFczivVZK0u0-19" value="" style="endArrow=classic;html=1;entryX=1;entryY=0.5;entryDx=0;entryDy=0;exitX=0;exitY=0.5;exitDx=0;exitDy=0;" edge="1" parent="1">
          <mxGeometry width="50" height="50" relative="1" as="geometry">
            <mxPoint x="400" y="822.5" as="sourcePoint"/>
            <mxPoint x="280" y="822.5" as="targetPoint"/>
          </mxGeometry>
        </mxCell>
        <mxCell id="_7fp2GfrCFczivVZK0u0-20" value="&lt;font style=&quot;font-size: 16px&quot; color=&quot;#ff6666&quot;&gt;&lt;b&gt;支付表设计&lt;/b&gt;&lt;/font&gt;" style="text;html=1;strokeColor=none;fillColor=none;align=center;verticalAlign=middle;whiteSpace=wrap;rounded=0;" vertex="1" parent="1">
          <mxGeometry x="120" y="100" width="120" height="20" as="geometry"/>
        </mxCell>
        <mxCell id="_7fp2GfrCFczivVZK0u0-21" value="前端" style="rounded=0;whiteSpace=wrap;html=1;" vertex="1" parent="1">
          <mxGeometry x="120" y="1000" width="120" height="40" as="geometry"/>
        </mxCell>
        <mxCell id="_7fp2GfrCFczivVZK0u0-22" value="&lt;font color=&quot;#ff6666&quot;&gt;&lt;span style=&quot;font-size: 16px&quot;&gt;&lt;b&gt;接口业务流程&lt;/b&gt;&lt;/span&gt;&lt;/font&gt;" style="text;html=1;strokeColor=none;fillColor=none;align=center;verticalAlign=middle;whiteSpace=wrap;rounded=0;" vertex="1" parent="1">
          <mxGeometry x="110" y="920" width="120" height="20" as="geometry"/>
        </mxCell>
        <mxCell id="_7fp2GfrCFczivVZK0u0-23" value="payment下单接口" style="rounded=0;whiteSpace=wrap;html=1;" vertex="1" parent="1">
          <mxGeometry x="360" y="1000" width="120" height="40" as="geometry"/>
        </mxCell>
        <mxCell id="_7fp2GfrCFczivVZK0u0-24" value="微信支付下单" style="rounded=0;whiteSpace=wrap;html=1;" vertex="1" parent="1">
          <mxGeometry x="600" y="1000" width="120" height="40" as="geometry"/>
        </mxCell>
        <mxCell id="_7fp2GfrCFczivVZK0u0-25" value="" style="endArrow=classic;html=1;exitX=1;exitY=0.5;exitDx=0;exitDy=0;entryX=0;entryY=0.5;entryDx=0;entryDy=0;" edge="1" parent="1" source="_7fp2GfrCFczivVZK0u0-21" target="_7fp2GfrCFczivVZK0u0-23">
          <mxGeometry width="50" height="50" relative="1" as="geometry">
            <mxPoint x="300" y="920" as="sourcePoint"/>
            <mxPoint x="300" y="940" as="targetPoint"/>
          </mxGeometry>
        </mxCell>
        <mxCell id="_7fp2GfrCFczivVZK0u0-26" value="" style="endArrow=classic;html=1;exitX=1;exitY=0.5;exitDx=0;exitDy=0;entryX=0;entryY=0.5;entryDx=0;entryDy=0;" edge="1" parent="1">
          <mxGeometry width="50" height="50" relative="1" as="geometry">
            <mxPoint x="480" y="1019.5" as="sourcePoint"/>
            <mxPoint x="600" y="1019.5" as="targetPoint"/>
          </mxGeometry>
        </mxCell>
        <mxCell id="_7fp2GfrCFczivVZK0u0-27" value="前端调用下单接口流程" style="text;html=1;strokeColor=none;fillColor=none;align=center;verticalAlign=middle;whiteSpace=wrap;rounded=0;" vertex="1" parent="1">
          <mxGeometry x="120" y="970" width="130" height="20" as="geometry"/>
        </mxCell>
        <mxCell id="_7fp2GfrCFczivVZK0u0-28" value="admin后台/其他服务" style="rounded=0;whiteSpace=wrap;html=1;" vertex="1" parent="1">
          <mxGeometry x="121" y="1120" width="120" height="40" as="geometry"/>
        </mxCell>
        <mxCell id="_7fp2GfrCFczivVZK0u0-29" value="payment关闭订单" style="rounded=0;whiteSpace=wrap;html=1;" vertex="1" parent="1">
          <mxGeometry x="361" y="1120" width="129" height="40" as="geometry"/>
        </mxCell>
        <mxCell id="_7fp2GfrCFczivVZK0u0-30" value="微信支付关闭订单" style="rounded=0;whiteSpace=wrap;html=1;" vertex="1" parent="1">
          <mxGeometry x="601" y="1120" width="129" height="40" as="geometry"/>
        </mxCell>
        <mxCell id="_7fp2GfrCFczivVZK0u0-31" value="" style="endArrow=classic;html=1;exitX=1;exitY=0.5;exitDx=0;exitDy=0;entryX=0;entryY=0.5;entryDx=0;entryDy=0;" edge="1" parent="1" source="_7fp2GfrCFczivVZK0u0-28" target="_7fp2GfrCFczivVZK0u0-29">
          <mxGeometry width="50" height="50" relative="1" as="geometry">
            <mxPoint x="301" y="1040" as="sourcePoint"/>
            <mxPoint x="301" y="1060" as="targetPoint"/>
          </mxGeometry>
        </mxCell>
        <mxCell id="_7fp2GfrCFczivVZK0u0-32" value="" style="endArrow=classic;html=1;entryX=0;entryY=0.5;entryDx=0;entryDy=0;exitX=1;exitY=0.488;exitDx=0;exitDy=0;exitPerimeter=0;" edge="1" parent="1" source="_7fp2GfrCFczivVZK0u0-29">
          <mxGeometry width="50" height="50" relative="1" as="geometry">
            <mxPoint x="500" y="1140" as="sourcePoint"/>
            <mxPoint x="601" y="1139.5" as="targetPoint"/>
          </mxGeometry>
        </mxCell>
        <mxCell id="_7fp2GfrCFczivVZK0u0-33" value="关闭订单接口流程(前端无直接关闭订单功能，关闭订单必须有云鹊医后台处理)" style="text;html=1;strokeColor=none;fillColor=none;align=center;verticalAlign=middle;whiteSpace=wrap;rounded=0;" vertex="1" parent="1">
          <mxGeometry x="116" y="1090" width="424" height="20" as="geometry"/>
        </mxCell>
        <mxCell id="_7fp2GfrCFczivVZK0u0-34" value="前端/admin" style="rounded=0;whiteSpace=wrap;html=1;" vertex="1" parent="1">
          <mxGeometry x="120.5" y="1240" width="120" height="40" as="geometry"/>
        </mxCell>
        <mxCell id="_7fp2GfrCFczivVZK0u0-35" value="paymen支付状态查询接口" style="rounded=0;whiteSpace=wrap;html=1;" vertex="1" parent="1">
          <mxGeometry x="361" y="1240" width="130" height="40" as="geometry"/>
        </mxCell>
        <mxCell id="_7fp2GfrCFczivVZK0u0-36" value="微信支付状态查询" style="rounded=0;whiteSpace=wrap;html=1;" vertex="1" parent="1">
          <mxGeometry x="601" y="1240" width="130" height="40" as="geometry"/>
        </mxCell>
        <mxCell id="_7fp2GfrCFczivVZK0u0-37" value="" style="endArrow=classic;html=1;exitX=1;exitY=0.5;exitDx=0;exitDy=0;entryX=0;entryY=0.5;entryDx=0;entryDy=0;" edge="1" parent="1" source="_7fp2GfrCFczivVZK0u0-34" target="_7fp2GfrCFczivVZK0u0-35">
          <mxGeometry width="50" height="50" relative="1" as="geometry">
            <mxPoint x="300.5" y="1160" as="sourcePoint"/>
            <mxPoint x="300.5" y="1180" as="targetPoint"/>
          </mxGeometry>
        </mxCell>
        <mxCell id="_7fp2GfrCFczivVZK0u0-38" value="" style="endArrow=classic;html=1;entryX=0;entryY=0.5;entryDx=0;entryDy=0;" edge="1" parent="1">
          <mxGeometry width="50" height="50" relative="1" as="geometry">
            <mxPoint x="490" y="1260" as="sourcePoint"/>
            <mxPoint x="600.5" y="1259.5" as="targetPoint"/>
          </mxGeometry>
        </mxCell>
        <mxCell id="_7fp2GfrCFczivVZK0u0-39" value="&lt;font color=&quot;#ff6666&quot;&gt;支付状态查询接口流程&lt;/font&gt;" style="text;html=1;strokeColor=none;fillColor=none;align=center;verticalAlign=middle;whiteSpace=wrap;rounded=0;" vertex="1" parent="1">
          <mxGeometry x="116" y="1210" width="134" height="20" as="geometry"/>
        </mxCell>
        <mxCell id="_7fp2GfrCFczivVZK0u0-40" value="前端发起退款请求" style="rounded=0;whiteSpace=wrap;html=1;" vertex="1" parent="1">
          <mxGeometry x="118.5" y="1360" width="120" height="40" as="geometry"/>
        </mxCell>
        <mxCell id="_7fp2GfrCFczivVZK0u0-41" value="payment退款接口" style="rounded=0;whiteSpace=wrap;html=1;" vertex="1" parent="1">
          <mxGeometry x="358.5" y="1360" width="120" height="40" as="geometry"/>
        </mxCell>
        <mxCell id="_7fp2GfrCFczivVZK0u0-42" value="微信支付退款接口" style="rounded=0;whiteSpace=wrap;html=1;" vertex="1" parent="1">
          <mxGeometry x="598.5" y="1360" width="120" height="40" as="geometry"/>
        </mxCell>
        <mxCell id="_7fp2GfrCFczivVZK0u0-43" value="" style="endArrow=classic;html=1;exitX=1;exitY=0.5;exitDx=0;exitDy=0;entryX=0;entryY=0.5;entryDx=0;entryDy=0;" edge="1" parent="1" source="_7fp2GfrCFczivVZK0u0-40" target="_7fp2GfrCFczivVZK0u0-41">
          <mxGeometry width="50" height="50" relative="1" as="geometry">
            <mxPoint x="298.5" y="1280" as="sourcePoint"/>
            <mxPoint x="298.5" y="1300" as="targetPoint"/>
          </mxGeometry>
        </mxCell>
        <mxCell id="_7fp2GfrCFczivVZK0u0-44" value="" style="endArrow=classic;html=1;exitX=1;exitY=0.5;exitDx=0;exitDy=0;entryX=0;entryY=0.5;entryDx=0;entryDy=0;" edge="1" parent="1">
          <mxGeometry width="50" height="50" relative="1" as="geometry">
            <mxPoint x="478.5" y="1379.5" as="sourcePoint"/>
            <mxPoint x="598.5" y="1379.5" as="targetPoint"/>
          </mxGeometry>
        </mxCell>
        <mxCell id="_7fp2GfrCFczivVZK0u0-45" value="退款接口流程" style="text;html=1;strokeColor=none;fillColor=none;align=center;verticalAlign=middle;whiteSpace=wrap;rounded=0;fontColor=#000000;" vertex="1" parent="1">
          <mxGeometry x="111" y="1330" width="96" height="20" as="geometry"/>
        </mxCell>
        <mxCell id="_7fp2GfrCFczivVZK0u0-46" value="前端/admin" style="rounded=0;whiteSpace=wrap;html=1;" vertex="1" parent="1">
          <mxGeometry x="121.5" y="1480" width="120" height="40" as="geometry"/>
        </mxCell>
        <mxCell id="_7fp2GfrCFczivVZK0u0-47" value="payment退款状态查询接口" style="rounded=0;whiteSpace=wrap;html=1;" vertex="1" parent="1">
          <mxGeometry x="362" y="1480" width="129" height="40" as="geometry"/>
        </mxCell>
        <mxCell id="_7fp2GfrCFczivVZK0u0-48" value="微信支付退款状态查询" style="rounded=0;whiteSpace=wrap;html=1;" vertex="1" parent="1">
          <mxGeometry x="601.5" y="1480" width="120" height="40" as="geometry"/>
        </mxCell>
        <mxCell id="_7fp2GfrCFczivVZK0u0-49" value="" style="endArrow=classic;html=1;exitX=1;exitY=0.5;exitDx=0;exitDy=0;entryX=0;entryY=0.5;entryDx=0;entryDy=0;" edge="1" parent="1" source="_7fp2GfrCFczivVZK0u0-46" target="_7fp2GfrCFczivVZK0u0-47">
          <mxGeometry width="50" height="50" relative="1" as="geometry">
            <mxPoint x="301.5" y="1400" as="sourcePoint"/>
            <mxPoint x="301.5" y="1420" as="targetPoint"/>
          </mxGeometry>
        </mxCell>
        <mxCell id="_7fp2GfrCFczivVZK0u0-50" value="" style="endArrow=classic;html=1;entryX=0;entryY=0.5;entryDx=0;entryDy=0;" edge="1" parent="1">
          <mxGeometry width="50" height="50" relative="1" as="geometry">
            <mxPoint x="490" y="1500" as="sourcePoint"/>
            <mxPoint x="601.5" y="1499.5" as="targetPoint"/>
          </mxGeometry>
        </mxCell>
        <mxCell id="_7fp2GfrCFczivVZK0u0-51" value="退款状态查询接口流程" style="text;html=1;strokeColor=none;fillColor=none;align=center;verticalAlign=middle;whiteSpace=wrap;rounded=0;" vertex="1" parent="1">
          <mxGeometry x="113" y="1450" width="134" height="20" as="geometry"/>
        </mxCell>
        <mxCell id="_7fp2GfrCFczivVZK0u0-52" value="微信支付平台" style="rounded=0;whiteSpace=wrap;html=1;" vertex="1" parent="1">
          <mxGeometry x="120" y="1650" width="120" height="40" as="geometry"/>
        </mxCell>
        <mxCell id="_7fp2GfrCFczivVZK0u0-53" value="payment支付状态接口" style="rounded=0;whiteSpace=wrap;html=1;" vertex="1" parent="1">
          <mxGeometry x="360" y="1650" width="130" height="40" as="geometry"/>
        </mxCell>
        <mxCell id="_7fp2GfrCFczivVZK0u0-54" value="数据落库" style="rounded=0;whiteSpace=wrap;html=1;" vertex="1" parent="1">
          <mxGeometry x="600" y="1650" width="120" height="40" as="geometry"/>
        </mxCell>
        <mxCell id="_7fp2GfrCFczivVZK0u0-55" value="" style="endArrow=classic;html=1;exitX=1;exitY=0.5;exitDx=0;exitDy=0;entryX=0;entryY=0.5;entryDx=0;entryDy=0;" edge="1" parent="1" source="_7fp2GfrCFczivVZK0u0-52" target="_7fp2GfrCFczivVZK0u0-53">
          <mxGeometry width="50" height="50" relative="1" as="geometry">
            <mxPoint x="300" y="1570" as="sourcePoint"/>
            <mxPoint x="300" y="1590" as="targetPoint"/>
          </mxGeometry>
        </mxCell>
        <mxCell id="_7fp2GfrCFczivVZK0u0-56" value="" style="endArrow=classic;html=1;entryX=0;entryY=0.5;entryDx=0;entryDy=0;" edge="1" parent="1">
          <mxGeometry width="50" height="50" relative="1" as="geometry">
            <mxPoint x="490" y="1670" as="sourcePoint"/>
            <mxPoint x="600" y="1669.5" as="targetPoint"/>
          </mxGeometry>
        </mxCell>
        <mxCell id="_7fp2GfrCFczivVZK0u0-57" value="微信支付回调支付状态接口流程" style="text;html=1;strokeColor=none;fillColor=none;align=center;verticalAlign=middle;whiteSpace=wrap;rounded=0;" vertex="1" parent="1">
          <mxGeometry x="112" y="1620" width="179" height="20" as="geometry"/>
        </mxCell>
        <mxCell id="_7fp2GfrCFczivVZK0u0-60" value="微信支付平台" style="rounded=0;whiteSpace=wrap;html=1;" vertex="1" parent="1">
          <mxGeometry x="120" y="1770" width="120" height="40" as="geometry"/>
        </mxCell>
        <mxCell id="_7fp2GfrCFczivVZK0u0-61" value="payment退款状态接口" style="rounded=0;whiteSpace=wrap;html=1;" vertex="1" parent="1">
          <mxGeometry x="360" y="1770" width="130" height="40" as="geometry"/>
        </mxCell>
        <mxCell id="_7fp2GfrCFczivVZK0u0-62" value="数据落库" style="rounded=0;whiteSpace=wrap;html=1;" vertex="1" parent="1">
          <mxGeometry x="600" y="1770" width="120" height="40" as="geometry"/>
        </mxCell>
        <mxCell id="_7fp2GfrCFczivVZK0u0-63" value="" style="endArrow=classic;html=1;exitX=1;exitY=0.5;exitDx=0;exitDy=0;entryX=0;entryY=0.5;entryDx=0;entryDy=0;" edge="1" parent="1" source="_7fp2GfrCFczivVZK0u0-60" target="_7fp2GfrCFczivVZK0u0-61">
          <mxGeometry width="50" height="50" relative="1" as="geometry">
            <mxPoint x="300" y="1690" as="sourcePoint"/>
            <mxPoint x="300" y="1710" as="targetPoint"/>
          </mxGeometry>
        </mxCell>
        <mxCell id="_7fp2GfrCFczivVZK0u0-64" value="" style="endArrow=classic;html=1;entryX=0;entryY=0.5;entryDx=0;entryDy=0;" edge="1" parent="1">
          <mxGeometry width="50" height="50" relative="1" as="geometry">
            <mxPoint x="490" y="1790" as="sourcePoint"/>
            <mxPoint x="600" y="1789.5" as="targetPoint"/>
          </mxGeometry>
        </mxCell>
        <mxCell id="_7fp2GfrCFczivVZK0u0-65" value="微信支付回调退款状态接口流程" style="text;html=1;strokeColor=none;fillColor=none;align=center;verticalAlign=middle;whiteSpace=wrap;rounded=0;" vertex="1" parent="1">
          <mxGeometry x="112" y="1740" width="179" height="20" as="geometry"/>
        </mxCell>
        <mxCell id="_7fp2GfrCFczivVZK0u0-69" value="微信支付平台异步回调云鹊医后端接口" style="text;html=1;strokeColor=none;fillColor=none;align=center;verticalAlign=middle;whiteSpace=wrap;rounded=0;dashed=1;fontColor=#000000;fontSize=15;" vertex="1" parent="1">
          <mxGeometry x="94" y="1570" width="270" height="20" as="geometry"/>
        </mxCell>
      </root>
    </mxGraphModel>
  </diagram>
</mxfile>
